<?xml version="1.0" standalone="no"?>
<svg xmlns:xlink="http://www.w3.org/1999/xlink" id="wave" style="transform:rotate(0deg); transition: 0.3s" viewBox="0 0 1440 490" version="1.1" xmlns="http://www.w3.org/2000/svg"><defs><linearGradient id="sw-gradient-0" x1="0" x2="0" y1="1" y2="0"><stop stop-color="rgba(127, 124, 254, 0.61)" offset="0%"/><stop stop-color="rgba(34, 208, 224, 0.63)" offset="100%"/></linearGradient></defs><path style="transform:translate(0, 0px); opacity:1" fill="url(#sw-gradient-0)" d="M0,392L40,367.5C80,343,160,294,240,277.7C320,261,400,278,480,253.2C560,229,640,163,720,171.5C800,180,880,261,960,285.8C1040,310,1120,278,1200,277.7C1280,278,1360,310,1440,334.8C1520,359,1600,376,1680,367.5C1760,359,1840,327,1920,269.5C2000,212,2080,131,2160,106.2C2240,82,2320,114,2400,106.2C2480,98,2560,49,2640,32.7C2720,16,2800,33,2880,32.7C2960,33,3040,16,3120,8.2C3200,0,3280,0,3360,40.8C3440,82,3520,163,3600,196C3680,229,3760,212,3840,187.8C3920,163,4000,131,4080,138.8C4160,147,4240,196,4320,236.8C4400,278,4480,310,4560,326.7C4640,343,4720,343,4800,310.3C4880,278,4960,212,5040,155.2C5120,98,5200,49,5280,73.5C5360,98,5440,196,5520,236.8C5600,278,5680,261,5720,253.2L5760,245L5760,490L5720,490C5680,490,5600,490,5520,490C5440,490,5360,490,5280,490C5200,490,5120,490,5040,490C4960,490,4880,490,4800,490C4720,490,4640,490,4560,490C4480,490,4400,490,4320,490C4240,490,4160,490,4080,490C4000,490,3920,490,3840,490C3760,490,3680,490,3600,490C3520,490,3440,490,3360,490C3280,490,3200,490,3120,490C3040,490,2960,490,2880,490C2800,490,2720,490,2640,490C2560,490,2480,490,2400,490C2320,490,2240,490,2160,490C2080,490,2000,490,1920,490C1840,490,1760,490,1680,490C1600,490,1520,490,1440,490C1360,490,1280,490,1200,490C1120,490,1040,490,960,490C880,490,800,490,720,490C640,490,560,490,480,490C400,490,320,490,240,490C160,490,80,490,40,490L0,490Z"/></svg>