<?xml version="1.0" standalone="no"?>
<svg xmlns:xlink="http://www.w3.org/1999/xlink" id="wave" style="transform:rotate(0deg); transition: 0.3s" viewBox="0 0 1440 490" version="1.1" xmlns="http://www.w3.org/2000/svg"><defs><linearGradient id="sw-gradient-0" x1="0" x2="0" y1="1" y2="0"><stop stop-color="rgba(132.151, 128.94, 255, 1)" offset="0%"/><stop stop-color="rgba(97, 93, 250, 1)" offset="100%"/></linearGradient></defs><path style="transform:translate(0, 0px); opacity:1" fill="url(#sw-gradient-0)" d="M0,49L120,114.3C240,180,480,310,720,359.3C960,408,1200,376,1440,302.2C1680,229,1920,114,2160,130.7C2400,147,2640,294,2880,302.2C3120,310,3360,180,3600,155.2C3840,131,4080,212,4320,277.7C4560,343,4800,392,5040,392C5280,392,5520,343,5760,318.5C6000,294,6240,294,6480,277.7C6720,261,6960,229,7200,196C7440,163,7680,131,7920,114.3C8160,98,8400,98,8640,114.3C8880,131,9120,163,9360,179.7C9600,196,9840,196,10080,171.5C10320,147,10560,98,10800,114.3C11040,131,11280,212,11520,245C11760,278,12000,261,12240,220.5C12480,180,12720,114,12960,114.3C13200,114,13440,180,13680,220.5C13920,261,14160,278,14400,302.2C14640,327,14880,359,15120,326.7C15360,294,15600,196,15840,130.7C16080,65,16320,33,16560,40.8C16800,49,17040,98,17160,122.5L17280,147L17280,490L17160,490C17040,490,16800,490,16560,490C16320,490,16080,490,15840,490C15600,490,15360,490,15120,490C14880,490,14640,490,14400,490C14160,490,13920,490,13680,490C13440,490,13200,490,12960,490C12720,490,12480,490,12240,490C12000,490,11760,490,11520,490C11280,490,11040,490,10800,490C10560,490,10320,490,10080,490C9840,490,9600,490,9360,490C9120,490,8880,490,8640,490C8400,490,8160,490,7920,490C7680,490,7440,490,7200,490C6960,490,6720,490,6480,490C6240,490,6000,490,5760,490C5520,490,5280,490,5040,490C4800,490,4560,490,4320,490C4080,490,3840,490,3600,490C3360,490,3120,490,2880,490C2640,490,2400,490,2160,490C1920,490,1680,490,1440,490C1200,490,960,490,720,490C480,490,240,490,120,490L0,490Z"/></svg>